<?xml version="1.0" encoding="UTF-8" standalone="no"?>
<!-- Created with Inkscape (http://www.inkscape.org/) -->

<svg
   version="1.1"
   id="svg2"
   xml:space="preserve"
   width="100"
   height="40"
   viewBox="0 0 100 40"
   sodipodi:docname="Sans titre - 6 [Récupéré].ai"
   xmlns:inkscape="http://www.inkscape.org/namespaces/inkscape"
   xmlns:sodipodi="http://sodipodi.sourceforge.net/DTD/sodipodi-0.dtd"
   xmlns="http://www.w3.org/2000/svg"
   xmlns:svg="http://www.w3.org/2000/svg"><defs
     id="defs6"><clipPath
       clipPathUnits="userSpaceOnUse"
       id="clipPath16"><path
         d="M 0,30 H 75 V 0 H 0 Z"
         id="path14" /></clipPath></defs><sodipodi:namedview
     id="namedview4"
     pagecolor="#ffffff"
     bordercolor="#666666"
     borderopacity="1.0"
     inkscape:pageshadow="2"
     inkscape:pageopacity="0.0"
     inkscape:pagecheckerboard="0" /><g
     id="g8"
     inkscape:groupmode="layer"
     inkscape:label="Sans titre - 6 [Récupéré]"
     transform="matrix(1.3333333,0,0,-1.3333333,0,40)"><g
       id="g10"><g
         id="g12"
         clip-path="url(#clipPath16)"><g
           id="g18"
           transform="translate(27.6499,24.0107)"><path
             d="m 0,0 -3.638,-3.672 c -1.36,1.292 -3.23,2.074 -5.236,2.074 -4.284,0 -7.752,-3.468 -7.752,-7.718 0,-4.285 3.468,-7.718 7.752,-7.718 2.006,0 3.876,0.782 5.236,2.04 L 0,-18.632 c -2.312,-2.211 -5.44,-3.57 -8.874,-3.57 -7.106,0 -12.886,5.78 -12.886,12.886 0,7.106 5.78,12.886 12.886,12.886 C -5.44,3.57 -2.312,2.21 0,0"
             style="fill:#ffffff;fill-opacity:1;fill-rule:nonzero;stroke:none"
             id="path20" /></g><path
           d="M 18.253,27.556 H 3.118 v -5.1 h 15.135 z"
           style="fill:#ffffff;fill-opacity:1;fill-rule:nonzero;stroke:none"
           id="path22" /><path
           d="M 18.368,6.995 H 3 V 1.817 h 15.368 z"
           style="fill:#ffffff;fill-opacity:1;fill-rule:nonzero;stroke:none"
           id="path24" /><g
           id="g26"
           transform="translate(39.9961,6.9873)"><path
             d="M 0,0 C 1.429,0 2.584,1.122 2.584,2.55 2.584,3.979 1.429,5.134 0,5.134 H -3.706 V 0 Z m -1.632,10.302 c 1.428,0 2.584,1.156 2.584,2.551 0,1.427 -1.156,2.584 -2.584,2.584 h -2.074 v -5.135 z m 7.718,2.551 C 6.086,11.288 5.61,9.826 4.828,8.603 6.596,7.174 7.719,4.998 7.719,2.55 7.719,-1.7 4.25,-5.168 0,-5.168 h -8.84 v 25.772 h 7.208 c 4.284,0 7.718,-3.468 7.718,-7.751"
             style="fill:#ffffff;fill-opacity:1;fill-rule:nonzero;stroke:none"
             id="path28" /></g><g
           id="g30"
           transform="translate(71.8564,27.5918)"><path
             d="m 0,0 h -6.019 l -4.64,-7.802 v -0.001 l -3.079,-5.132 -0.014,0.023 -7.702,-12.86 h 6.017 l 4.727,7.854 4.691,-7.854 H 0 l -7.719,12.886 z"
             style="fill:#ffffff;fill-opacity:1;fill-rule:nonzero;stroke:none"
             id="path32" /></g><g
           id="g34"
           transform="translate(58.5186,24.1152)"><path
             d="m 0,0 -2.069,3.442 -6.004,-0.025 5.146,-8.593 3.175,4.797 z"
             style="fill:#ffffff;fill-opacity:1;fill-rule:nonzero;stroke:none"
             id="path36" /></g></g></g></g></svg>
